<svg width="16" height="16" viewBox="0 0 16 16" fill="none" xmlns="http://www.w3.org/2000/svg">
<path fill-rule="evenodd" clip-rule="evenodd" d="M15 1.70705L13.6535 3.05345L14.2 3.6C14.2948 3.69027 14.3703 3.79886 14.4219 3.91919C14.4735 4.03952 14.5001 4.16908 14.5001 4.3C14.5001 4.43092 14.4735 4.56048 14.4219 4.68081C14.3703 4.80114 14.2948 4.90973 14.2 5L5.2 14H2V10.8L11 1.8C11.0903 1.70517 11.1989 1.62966 11.3192 1.57807C11.4395 1.52648 11.5691 1.49988 11.7 1.49988C11.8309 1.49988 11.9605 1.52648 12.0808 1.57807C12.2011 1.62966 12.3097 1.70517 12.4 1.8L12.9466 2.34645L14.2929 1L15 1.70705ZM3 13H4.8L13.5 4.3L11.7 2.5L3 11.2V13ZM4.50001 5.79297L8.29297 2.00001L9 2.70705L5.20705 6.5L4.50001 5.79297Z" fill="black"/>
</svg>
