<svg width="16" height="16" viewBox="0 0 16 16" fill="none" xmlns="http://www.w3.org/2000/svg">
<path fill-rule="evenodd" clip-rule="evenodd" d="M13 7V8.29295L14.3535 9.6465C14.4473 9.74025 14.5 9.8674 14.5 10V11.5C14.5 11.6326 14.4473 11.7598 14.3536 11.8536C14.2598 11.9473 14.1326 12 14 12H10.5V12.5C10.5 13.163 10.2366 13.7989 9.76777 14.2678C9.29893 14.7366 8.66304 15 8 15C7.33696 15 6.70107 14.7366 6.23223 14.2678C5.76339 13.7989 5.5 13.163 5.5 12.5V12H2C1.86739 12 1.74021 11.9473 1.64645 11.8536C1.55268 11.7598 1.5 11.6326 1.5 11.5V10C1.50003 9.8674 1.55273 9.74025 1.6465 9.6465L3 8.29295V6.5C3.0016 5.26098 3.46257 4.06655 4.29377 3.1477C5.12496 2.22884 6.26734 1.65082 7.5 1.5254V0.5H8.5V1.5254C9.01782 1.57833 9.52404 1.71263 10 1.92335V3.04125C9.39268 2.68804 8.70292 2.50134 8.00036 2.49999C7.2978 2.49864 6.60733 2.68269 5.99866 3.03357C5.38999 3.38444 4.88468 3.8897 4.53375 4.49834C4.18283 5.10698 3.99871 5.79744 4 6.5V8.5C3.99997 8.6326 3.94727 8.75975 3.8535 8.8535L2.5 10.2071V11H13.5V10.2071L12.1465 8.8535C12.0527 8.75975 12 8.6326 12 8.5V7H13ZM9.06066 13.5607C9.34196 13.2794 9.5 12.8978 9.5 12.5V12H6.5V12.5C6.5 12.8978 6.65804 13.2794 6.93934 13.5607C7.22064 13.842 7.60218 14 8 14C8.39782 14 8.77936 13.842 9.06066 13.5607ZM15 4C15 5.10457 14.1046 6 13 6C11.8954 6 11 5.10457 11 4C11 2.89543 11.8954 2 13 2C14.1046 2 15 2.89543 15 4Z" fill="black"/>
</svg>
